<?xml version="1.0" standalone="no"?>
<!DOCTYPE svg PUBLIC "-//W3C//DTD SVG 20010904//EN"
 "http://www.w3.org/TR/2001/REC-SVG-20010904/DTD/svg10.dtd">
<svg version="1.0" xmlns="http://www.w3.org/2000/svg"
 width="54px" height="54px" viewBox="0 0 54 54"
 preserveAspectRatio="xMidYMid meet">
<metadata>
Created by potrace 1.16, written by Peter Selinger 2001-2019
</metadata>
<g transform="translate(0.000000,154.000000) scale(0.100000,-0.100000)"
fill="#000000" stroke="none">
<path d="M5462 1140 c-61 -13 -139 -58 -178 -104 -71 -83 -101 -235 -70 -356
42 -162 157 -253 321 -254 139 0 245 66 302 188 25 55 28 71 28 171 0 100 -3
116 -28 171 -16 34 -45 78 -65 97 -73 71 -207 108 -310 87z m173 -89 c100 -45
151 -151 143 -296 -5 -105 -41 -175 -113 -220 -96 -59 -228 -44 -300 37 -57
62 -69 99 -69 208 -1 112 13 158 63 213 48 53 101 77 176 77 37 0 76 -8 100
-19z"/>
<path d="M7543 1140 c-111 -23 -165 -79 -171 -175 -3 -50 0 -66 20 -95 34 -50
76 -75 170 -99 171 -45 191 -53 219 -81 20 -19 29 -39 29 -60 0 -82 -66 -130
-180 -130 -109 0 -175 44 -202 131 -11 37 -13 39 -51 39 l-40 0 7 -42 c21
-130 121 -200 287 -201 74 -1 92 2 143 27 77 38 116 96 116 174 0 59 -9 83
-49 125 -37 40 -63 52 -182 82 -126 32 -184 56 -198 83 -27 51 -1 115 56 138
39 17 156 18 186 3 38 -20 76 -61 82 -90 6 -26 11 -29 46 -29 34 0 39 3 39 23
-1 30 -33 98 -56 119 -55 48 -184 76 -271 58z"/>
<path d="M100 1100 l0 -40 115 0 115 0 0 -315 0 -315 45 0 45 0 0 315 0 315
115 0 115 0 0 40 0 40 -275 0 -275 0 0 -40z"/>
<path d="M750 785 l0 -355 45 0 45 0 0 160 0 160 165 0 165 0 0 40 0 40 -165
0 -165 0 0 115 0 115 195 0 195 0 0 40 0 40 -240 0 -240 0 0 -355z"/>
<path d="M1350 785 l0 -357 178 4 c205 5 256 20 317 91 122 142 108 436 -24
549 -61 52 -97 60 -293 65 l-178 5 0 -357z m363 261 c18 -7 46 -29 61 -47 50
-58 60 -94 60 -209 0 -88 -3 -113 -22 -155 -48 -104 -89 -124 -254 -125 l-118
0 0 275 0 275 120 0 c79 0 132 -5 153 -14z"/>
<path d="M2445 908 c-49 -128 -110 -288 -136 -355 l-47 -123 46 0 47 0 39 110
38 110 153 0 152 0 40 -107 40 -108 51 -3 51 -3 -13 33 c-15 35 -265 644 -273
666 -3 7 -24 12 -52 12 l-47 0 -89 -232z m200 -16 c32 -84 56 -155 53 -158 -3
-2 -57 -3 -121 -2 l-115 3 48 127 c27 70 52 143 56 163 3 20 10 33 13 28 4 -4
34 -77 66 -161z"/>
<path d="M3000 786 l0 -356 45 0 45 0 0 160 0 160 88 0 c68 0 94 -4 119 -19
28 -18 123 -150 184 -258 24 -43 24 -43 81 -43 l57 0 -67 107 c-37 60 -92 134
-124 166 -31 32 -52 59 -45 61 136 39 189 105 174 216 -8 60 -43 109 -96 133
-41 19 -70 22 -253 25 l-208 4 0 -356z m410 259 c56 -29 75 -101 43 -156 -29
-49 -65 -59 -222 -59 l-141 0 0 115 0 115 145 0 c111 0 153 -4 175 -15z"/>
<path d="M3650 1100 l0 -40 115 0 115 0 0 -315 0 -315 45 0 45 0 0 315 0 315
115 0 115 0 0 40 0 40 -275 0 -275 0 0 -40z"/>
<path d="M4240 1133 c0 -5 41 -165 92 -356 l92 -348 45 3 45 3 85 307 c47 169
88 302 92 295 6 -10 36 -118 166 -589 4 -14 16 -18 47 -18 l42 0 93 342 c51
188 95 348 98 355 4 9 -7 13 -40 13 l-45 0 -66 -272 c-36 -150 -69 -288 -72
-306 -4 -18 -9 -31 -11 -28 -2 2 -13 46 -24 97 -10 52 -45 186 -77 299 l-58
205 -54 3 -55 3 -34 -123 c-19 -68 -56 -204 -82 -302 -27 -99 -50 -180 -52
-182 -1 -2 -34 134 -72 302 l-69 304 -43 0 c-24 0 -43 -3 -43 -7z"/>
<path d="M6000 786 l0 -356 45 0 45 0 0 160 0 160 88 0 c68 0 94 -4 119 -19
28 -18 123 -150 184 -258 24 -43 24 -43 81 -43 l57 0 -67 107 c-37 60 -92 134
-124 166 -31 32 -52 59 -45 61 136 39 189 105 174 216 -8 60 -43 109 -96 133
-41 19 -70 22 -253 25 l-208 4 0 -356z m410 259 c56 -29 75 -101 43 -156 -29
-49 -65 -59 -222 -59 l-141 0 0 115 0 115 145 0 c111 0 153 -4 175 -15z"/>
<path d="M6710 785 l0 -355 40 0 40 0 0 122 0 122 57 58 c32 32 60 58 63 58 3
0 62 -81 130 -180 l125 -179 58 -1 c31 0 57 1 57 3 0 2 -67 95 -150 208 -82
112 -150 207 -150 210 0 3 65 70 144 147 l145 142 -58 0 -58 0 -179 -172 -179
-172 -3 172 -2 172 -40 0 -40 0 0 -355z"/>
</g>
</svg>
